PathFileType	4	(X/Y/Z)	35_2_13_p0_0-691_filt_butterworth.trc
DataRate	CameraRate	NumFrames	NumMarkers	Units	OrigDataRate	OrigDataStartFrame	OrigNumFrames
59.0	59.0	6	27	m	59.0	345	691
Frame#	Time	RHip			RKnee			RAnkle			RBigToe			RSmallToe			RHeel			LHip			LKnee			LAnkle			LBigToe			LSmallToe			LHeel			Neck			Head			Nose			RShoulder			RElbow			RWrist			RThumb			RIndex			RPinky			LShoulder			LElbow			LWrist			LThumb			LIndex			LPinky			
		X1	Y1	Z1	X2	Y2	Z2	X3	Y3	Z3	X4	Y4	Z4	X5	Y5	Z5	X6	Y6	Z6	X7	Y7	Z7	X8	Y8	Z8	X9	Y9	Z9	X10	Y10	Z10	X11	Y11	Z11	X12	Y12	Z12	X13	Y13	Z13	X14	Y14	Z14	X15	Y15	Z15	X16	Y16	Z16	X17	Y17	Z17	X18	Y18	Z18	X19	Y19	Z19	X20	Y20	Z20	X21	Y21	Z21	X22	Y22	Z22	X23	Y23	Z23	X24	Y24	Z24	X25	Y25	Z25	X26	Y26	Z26	X27	Y27	Z27	
345	5.8474576271186445	0.38310842339600676	0.5888307966318832	0.47172404829924286	0.3732105020392171	0.8717922841444679	0.848891532289954	0.37648281994402016	1.1175368644479116	1.1952097855484751	0.3459895285677417	0.9678814493506238	1.2982460711377857	0.4201704407439787	0.9793417752313225	1.2874151391656947	0.3575145970475205	1.2478201937352569	1.2235630291520159	0.1590312608233967	0.6295542956860085	0.46636198407858215	0.16141446624419148	0.8891997666854725	0.8266281476142172	0.18433462963310324	1.1280858044468636	1.1784622073648585	0.1947349100441668	0.9376202102116045	1.280594011553432	0.14211092145413462	0.9913999208231918	1.2690246863373797	0.19413029473490884	1.206394354562127	1.222914160573371	0.2873977729437046	0.3581721490079114	-0.03925521961565398	0.28030899262860925	0.2037840183260211	-0.25127376916530747	0.27090676541399233	0.18962998336409254	-0.09765422056451886	0.4542536761091331	0.3157071459762292	0.056278036177633675	0.5751217234108386	0.1236327634308304	0.23680503607272677	0.36628651175306154	0.12041233600000474	0.21983298121934225	0.26042952193312224	0.12872979362530645	0.23919969719791723	0.25804160649195074	0.11536512561881644	0.2375410386267366	0.2871320494180314	0.11124118579568673	0.27913618609681207	0.11079646171605527	0.4061935260738723	0.043500656151329656	0.038626944858987426	0.568417145981439	0.23408443012212632	-0.0598813997883144	0.4053915208204879	0.36310599829222545	-0.08078787602918423	0.29542942056052357	0.3791185478577016	-0.09826841095387144	0.3046367875413489	0.41865448359346985	-0.09224974172975037	0.3306438857471397	0.4506285239094109
346	5.864406779661017	0.3835072196212816	0.5886967109810651	0.4716992016483802	0.37541919651911454	0.874872288375979	0.8485190095531098	0.37640141289583434	1.117530941843445	1.1951952723499608	0.34698110091596757	0.9692609187607587	1.2983150614501158	0.4201716280182071	0.9791599638759296	1.287271344818248	0.3574130947570964	1.247724143197598	1.222461934548623	0.1601362195502679	0.624591267475884	0.4673752360700196	0.16117368754260902	0.8898405927209687	0.8276786123487132	0.1840849492783492	1.126390208639697	1.1784062867156948	0.1944364875651585	0.9375316217659083	1.2803573634125263	0.1420556674191445	0.9915500410357311	1.2693508116706527	0.19389715549938383	1.2055551306441525	1.2215146332754978	0.2874166768022688	0.3582902078994006	-0.03925065561474259	0.28136459394912144	0.20584696826634094	-0.25427443413840684	0.2733629238867168	0.18166600510594624	-0.09453602384421576	0.45389012627840786	0.3172776651399087	0.055881568014743054	0.5904828507172	0.1364771903693062	0.22886023121174712	0.3789394933990221	0.11375812256686624	0.22167237668115544	0.2763430712233587	0.11146334040885032	0.25264147446350177	0.2744190363203897	0.10143378684401819	0.2499678255143877	0.29875864367081395	0.10716880358120612	0.2797231508948576	0.1114669446427222	0.4092482781425497	0.042723576741139774	0.03603282704901382	0.5655813386771457	0.23638183952354708	-0.05701328942648348	0.40212035019023623	0.36422975908609856	-0.07532077774451922	0.2839606152301958	0.38054658640456923	-0.09667089634907038	0.3001280542585957	0.4181174714388918	-0.09067144635052228	0.32450572797288757	0.4523670002798331
347	5.88135593220339	0.3835389964703953	0.58866280481722	0.47170160251707033	0.3769510055194616	0.877212232861781	0.8478845831731028	0.37640610085215587	1.1175731622925362	1.195159084585639	0.348448498555858	0.973255112606457	1.298701981080949	0.4201480922806109	0.9791189959873884	1.2872166217524525	0.3573330957259349	1.2475546044196943	1.2219924333617405	0.16080200120676377	0.6219511134694814	0.46802246820723997	0.16139085857266114	0.8885533872147423	0.8288458267681555	0.18305495525713794	1.1215358091233623	1.1781513073230443	0.19430997463168045	0.9374428551316037	1.280134902160836	0.1418403863945341	0.9920321887756921	1.270218723873488	0.19377536429652012	1.204451353626264	1.2203232040809597	0.28738466779045374	0.3582929816594681	-0.03919398281368975	0.2825906512690689	0.20647392413894478	-0.255818501861435	0.27579123032617303	0.17482253249683888	-0.09204225549557021	0.4531710388059554	0.3206167438367766	0.05521364232039054	0.604007220865374	0.15186721110632523	0.21997329741451116	0.3936495214477922	0.11356066466251871	0.2208295679541278	0.29129802303060665	0.10378100087462315	0.2621224885868632	0.29016652367900003	0.0961995314595683	0.25602295859935686	0.3103132222939625	0.10634086203607901	0.27927733963782386	0.11238187888252156	0.4131839097056264	0.04078696058186836	0.034062628103120614	0.5647242454204802	0.23936738478825767	-0.05472061821829594	0.3996201175896057	0.36447057362775187	-0.07029902864782431	0.27316300823830647	0.38199844933631055	-0.09533816758558813	0.2950315806298006	0.41676214493087393	-0.08917528196849214	0.3193271254802093	0.4544656014131184
348	5.898305084745763	0.38346039367735746	0.5884584802053534	0.4717139871765065	0.37747437158523256	0.8781964887070306	0.8474956761016772	0.37686334362632423	1.1178313856355035	1.1951074970383284	0.3496492116574784	0.9787834698481431	1.299300686805335	0.4200852672867641	0.9791537653576611	1.2872633371889508	0.3572733357204542	1.2473451224484384	1.2219319142023959	0.16143096569523585	0.6232982815742832	0.46767696959889726	0.16244151365513007	0.8842304430757552	0.8297444945187853	0.18123997517393683	1.1151837806328617	1.1778051559705267	0.19430830420156037	0.9372782573630931	1.2800426468243111	0.14153450642133797	0.9927230757395278	1.2713863055702384	0.19365901376517672	1.20312869564966	1.2197016850892182	0.28731209501102795	0.3581567370027714	-0.03909001236928215	0.284187017967987	0.20616168633465073	-0.2560041415256983	0.2779113492548278	0.16995310264930918	-0.09065708629179942	0.45232261093509235	0.32467659816679056	0.05448228156592056	0.6134385277410533	0.1636734661252416	0.21325920752775226	0.4112060803029144	0.12323886511035531	0.2168443695916309	0.3019751033534901	0.10671880525223085	0.2660597668306393	0.3024588963512702	0.09719777502718617	0.25591821726759256	0.3248345027395875	0.1044958544271179	0.2795415460880538	0.11310001083804466	0.4157327432434976	0.03834460817075932	0.03307037301564594	0.564575812161244	0.24122038626864933	-0.05335082795305718	0.3987467128747906	0.36374291977418866	-0.06786980734461774	0.2679713149996026	0.38285259917701603	-0.09422488227624348	0.29155652867308546	0.4144339592827359	-0.08823276114174915	0.3155464149325408	0.4563434678076712
349	5.915254237288136	0.38339328215339985	0.5880393212959446	0.47171065079762	0.3774135859488145	0.8782309289396135	0.8471397293816627	0.3780675844597387	1.1184245573901428	1.1950661395161288	0.35020293269014746	0.9831495161484192	1.2997054726822954	0.4200070563541908	0.979203797808125	1.2873707007262396	0.3572071673546872	1.2471375597686742	1.2219840027446462	0.1621153868201143	0.6270785878132098	0.4661581323004479	0.16401702333696572	0.8783685727866948	0.8302273487650936	0.1789530303957828	1.1101453415690623	1.1775538254107931	0.19450798900492267	0.9372261430742808	1.280446754373025	0.14129730349555092	0.9932772254870962	1.2722908257052072	0.19343957727916788	1.2020636889407041	1.2196199595325075	0.28732758851879653	0.35823830702566206	-0.039075905532619214	0.2860411413230963	0.20569914667806616	-0.2550868980145237	0.2794954431852202	0.16728402361233627	-0.08978412338136997	0.45171063090291064	0.32765685283127244	0.05380777281988666	0.6191557609779812	0.17073265687138867	0.2093000752045155	0.4282535348784952	0.13786063486061823	0.21191654745677	0.30846494273393915	0.1162407766194049	0.26526799022630865	0.310421878730023	0.10025448971737783	0.25292281944046935	0.343341468862884	0.10093138399351906	0.2812916409346472	0.11341431501755003	0.4163645408354444	0.036586706902513484	0.03293886353287697	0.5641658253506718	0.24081218663630521	-0.05223801652035758	0.3988101066042739	0.3624371526673209	-0.06724786937250718	0.2664795777314688	0.3828042978686794	-0.09276987063300665	0.29028114376603037	0.41181928661566614	-0.08784334606885977	0.31317279953675786	0.4573767806354332
350	5.932203389830509	0.38337451406298756	0.5879048622894667	0.4716439881550729	0.3773684720961672	0.8781530349333405	0.8464798879798676	0.3796764489429937	1.11919471414936	1.1950502860473198	0.35032941014939994	0.9848458087839679	1.2994152214796157	0.4199501638133482	0.9792663678582707	1.2875100125109349	0.3571227296990335	1.2469524418997844	1.2220185664683887	0.16267748353549016	0.6305165130808605	0.4640819131067997	0.1653067637609923	0.874007887180813	0.8304608813324845	0.17683930116111612	1.1077926651338974	1.1775078575001512	0.1950074873051341	0.9377025544788747	1.2815866640593685	0.1412342817528791	0.9934721998744165	1.2725744231735	0.19316667224886677	1.20163650897506	1.2198808048323073	0.2877289758343249	0.3594404634891985	-0.039488975594551876	0.28797472076126973	0.2055408907439608	-0.25370800456670295	0.28079488771185235	0.16576807613033184	-0.08857213714158546	0.45145305643409583	0.32894566661715485	0.05329556711272943	0.6229411797348561	0.17485620534582855	0.20675140919430712	0.44086590848255175	0.14930707942149554	0.20853409846026544	0.3131177904919697	0.12836139607128844	0.26079043275774233	0.31542550161751587	0.10296924220196131	0.24968510381053227	0.36197299147465034	0.09830542590900598	0.2837615935086133	0.11347571867217725	0.4161083600785897	0.03596521901146039	0.03311412614292667	0.5635898988965227	0.2390705063902717	-0.051092878878977246	0.3987326724732864	0.3609456580855367	-0.0665702341843688	0.26461797101383483	0.3823662798302106	-0.09069961219921303	0.2903536152820943	0.41011055010658903	-0.0873737913125573	0.31115525107426445	0.4576591231296002
